
<svg width="48px" height="36px" viewBox="0 0 48 36" version="1.1" xmlns="http://www.w3.org/2000/svg" xmlns:xlink="http://www.w3.org/1999/xlink">
    <g id="Page-1" stroke="none" stroke-width="1" fill="none" fill-rule="evenodd">
        <g id="Desktop-Copy" transform="translate(-54.000000, -32.000000)" fill="#FFFFFF" stroke="#FFCA75">
            <g id="logo" transform="translate(45.000000, 16.000000)">
                <g id="Group-6" transform="translate(10.000000, 17.000000)">
                    <path d="M26.0052489,5.29165545 C25.9529993,4.06038292 26.2900558,2.95475044 27.0514069,2.00219135 C27.3828653,1.58746391 27.8069267,1.22483674 28.2449835,0.916384647 C30.4786534,-0.656536617 33.7703776,-0.149135224 35.2818836,2.0132569 C35.6802867,2.58313252 35.9310381,3.25743923 36.2230759,3.89532186 C36.6298763,4.78448459 37.0275797,5.6784885 37.4000912,6.58194423 C37.8376816,7.64354505 38.2419161,8.71851674 38.6648112,9.78634194 C39.0809419,10.8364161 39.4970725,11.8867209 39.9218337,12.9333371 C40.4182048,14.1563105 40.9248392,15.3751343 41.4256422,16.5962634 C42.0286118,18.0665978 42.6255167,19.5392376 43.2338512,21.0074972 C43.7614787,22.2807266 44.3093997,23.5461179 44.8325953,24.8211916 C45.1087717,25.4941151 45.3513591,26.18064 45.6100412,26.86071 C46.2874198,28.6429545 46.077955,30.3539646 45.0157022,31.9052158 C44.6298949,32.4686365 44.0164288,32.9359253 43.4108933,33.28449 C42.2427418,33.9569525 40.9421002,34.1667368 39.6097357,33.8656617 C37.925153,33.484592 36.6702298,32.5260391 35.9912184,30.936289 C35.1167375,28.8887019 34.2800443,26.8249775 33.4452172,24.7610227 C32.633016,22.7528566 31.8516047,20.7322418 31.0415028,18.722923 C30.10171,16.3922424 29.1374251,14.0710136 28.1985653,11.7398719 C27.5244523,10.0668996 26.8543047,8.39162207 26.2280094,6.70089885 C26.0656625,6.26288765 26.0747595,5.76309382 26.0052489,5.29165545" id="Fill-4"></path>
                    <path d="M10.0057003,5.19418043 C9.92471826,3.48620744 10.7133624,2.16522766 11.9399611,1.15665107 C13.8267496,-0.395005209 16.712084,-0.429537618 18.627961,1.32079513 C19.9232082,2.50387549 20.4000249,4.06427998 21.0094846,5.58623839 C21.3583125,6.45691555 21.7329708,7.31746321 22.0873836,8.18606842 C22.7664227,9.8493795 23.4533738,11.509928 24.111702,13.1810664 C25.0148379,15.4742486 25.8707344,17.7860784 26.7917888,20.0721239 C27.6353517,22.165939 28.504047,24.2514664 29.426265,26.3123606 C30.2216576,28.0903192 30.2244501,29.8526232 29.2177595,31.4800206 C27.6344209,34.0391024 24.3465034,34.83565 21.7541471,32.9976049 C20.4458682,32.0702946 19.904359,30.6942932 19.3365538,29.3157594 C18.5055571,27.2974551 17.6729313,25.2798415 16.8572932,23.2555517 C16.3348659,21.9589748 15.8585147,20.6439806 15.3314333,19.3490152 C14.638199,17.6456466 13.9042411,15.9586232 13.2091452,14.2559452 C12.7393097,13.1050951 12.3092671,11.9385903 11.8561866,10.7812941 C11.3533067,9.49645827 10.8148226,8.22428429 10.3524338,6.92563546 C10.1569599,6.37633993 10.1167016,5.77294362 10.0057003,5.19418043" id="Fill-6"></path>
                    <path d="M8.43553664,7 C8.78370377,7.76522424 9.08186442,8.37075344 9.33800086,8.99256882 C10.1472605,10.956863 10.9321039,12.9302051 11.7420679,14.8940469 C12.4548362,16.6212867 13.193899,18.3383476 13.9097193,20.0644565 C14.2024802,20.7701909 13.7094587,21.3506123 13.4775038,21.9380457 C12.6945386,23.9206619 11.8301075,25.8738724 10.9898579,27.8354522 C10.5808847,28.7904557 10.2648814,29.8035918 9.70987998,30.6739976 C9.03843157,31.7278491 8.02257239,32.4980497 6.73390795,32.8018322 C4.52798863,33.3218589 2.57891007,32.8414166 1.17262477,31.0872594 C0.103002762,29.7531499 -0.349637983,28.1824383 0.303028651,26.5140097 C1.50553171,23.4402196 2.74019855,20.3777392 3.99599489,17.3238544 C4.68481644,15.6484137 5.46519914,14.0082597 6.16528975,12.3368905 C6.74728996,10.9471365 7.26355396,9.53182231 7.82865058,8.13528243 C7.97115729,7.7824152 8.187852,7.45737021 8.43553664,7" id="Fill-8"></path>
                </g>
            </g>
        </g>
    </g>
</svg>